# xmcd CD database file
#
# Track frame offsets:
#	150
#	13944
#	26953
#	43131
#	55006
#	71880
#	90746
#	103369
#	114819
#	126229
#	141198
#	154541
#
# Disc length: 2278 seconds
#
# Revision: 0
# Processed by: cddbd v1.5.2PL0 Copyright (c) Steve Scherf et al.
# Submitted via: CDex 1.51
#
DISCID=aa08e40c
DTITLE=Peter Struijk - Straight Blues
DYEAR=2015
DGENRE=Blues
TTITLE0=Shinin' Moon
TTITLE1=Fine Little Mama
TTITLE2=Big Legs, Tight Skirt
TTITLE3=Don`t Be So Mean
TTITLE4=Going To Brownsville
TTITLE5=Good Friend Feeling Bad
TTITLE6=Ramboin' On My Mind
TTITLE7=Had The Blues Today
TTITLE8=Bump In The Love
TTITLE9=Dark Was The Night
TTITLE10=Lowdown Woman
TTITLE11=Going Down Slow
EXTD=YEAR: 2015
EXTT0=
EXTT1=
EXTT2=
EXTT3=
EXTT4=
EXTT5=
EXTT6=
EXTT7=
EXTT8=
EXTT9=
EXTT10=
EXTT11=
PLAYORDER=
